<?xml version="1.0" encoding="UTF-8" standalone="no"?>
<!-- Created with Inkscape (http://www.inkscape.org/) -->

<svg
   version="1.1"
   id="svg1"
   width="1181"
   height="472"
   viewBox="0 0 1181 472"
   sodipodi:docname="UQLogo.svg"
   inkscape:version="1.3.2 (091e20ef0f, 2023-11-25, custom)"
   xmlns:inkscape="http://www.inkscape.org/namespaces/inkscape"
   xmlns:sodipodi="http://sodipodi.sourceforge.net/DTD/sodipodi-0.dtd"
   xmlns="http://www.w3.org/2000/svg"
   xmlns:svg="http://www.w3.org/2000/svg">
  <defs
     id="defs1" />
  <sodipodi:namedview
     id="namedview1"
     pagecolor="#ffffff"
     bordercolor="#666666"
     borderopacity="1.0"
     inkscape:showpageshadow="2"
     inkscape:pageopacity="0.0"
     inkscape:pagecheckerboard="0"
     inkscape:deskcolor="#d1d1d1"
     inkscape:zoom="0.84591064"
     inkscape:cx="596.39869"
     inkscape:cy="299.08596"
     inkscape:window-width="1536"
     inkscape:window-height="798"
     inkscape:window-x="0"
     inkscape:window-y="0"
     inkscape:window-maximized="1"
     inkscape:current-layer="g1" />
  <g
     inkscape:groupmode="layer"
     inkscape:label="Image"
     id="g1">
    <path
       style="fill:#000000"
       d="m 429.05615,470.58545 c 0,-0.49116 0.61005,-1.12711 1.35568,-1.41323 0.74562,-0.28613 3.55812,-5.72628 6.25,-12.08923 2.69187,-6.36295 5.31796,-11.43578 5.83574,-11.27296 0.51778,0.16282 3.10822,5.21733 5.75653,11.23224 2.64832,6.0149 5.48718,11.4358 6.30858,12.04643 2.49865,1.8575 1.71765,2.38976 -3.50653,2.38976 -4.47315,0 -6.73328,-1.25557 -3.93761,-2.18746 0.7427,-0.24757 0.75015,-1.17539 0.0247,-3.08334 -0.91999,-2.41989 -1.55283,-2.7292 -5.58378,-2.7292 -3.95628,0 -4.70408,0.34653 -5.76299,2.67059 -0.96119,2.10958 -0.95668,2.75729 0.0214,3.08333 2.68487,0.89494 1.02353,2.24608 -2.76172,2.24608 -2.2,0 -4,-0.40186 -4,-0.89301 z m 15.34574,-9.85739 c 0.25507,-0.41272 -0.34492,-2.31423 -1.33331,-4.22557 l -1.79709,-3.47518 -1.60767,3.8477 c -0.88422,2.11623 -1.60767,4.01774 -1.60767,4.22557 0,0.71992 5.88405,0.3745 6.34574,-0.37252 z m 33.39042,9.5004 c -2.61049,-1.98233 -3.73616,-6.30479 -3.73616,-14.34648 0,-5.71421 -0.352,-7.60136 -1.5,-8.04189 -3.18773,-1.22325 -1.2596,-2.36163 4,-2.36163 5.2596,0 7.18773,1.13838 4,2.36163 -1.17114,0.4494 -1.5,2.44602 -1.5,9.10699 0,9.33444 1.60456,12.54768 6.25,12.51607 4.7921,-0.0326 6.75,-3.81783 6.75,-13.04979 0,-4.60157 -0.44932,-6.38422 -2,-7.9349 -1.1,-1.1 -2,-2.225 -2,-2.5 0,-0.275 2.25,-0.5 5,-0.5 5.35722,0 6.19477,0.77276 3,2.76793 -1.7408,1.08715 -2,2.33202 -2,9.60569 0,6.94001 -0.35135,8.80333 -2.07258,10.99152 -1.7676,2.24714 -2.84309,2.63486 -7.30887,2.63486 -2.87996,0 -5.97704,-0.5625 -6.88239,-1.25 z m 36.66113,-2.44579 c -0.87881,-4.68446 0.0552,-5.10833 3.15051,-1.42978 2.84734,3.38388 6.41784,4.07682 8.44163,1.6383 1.83048,-2.20559 0.73485,-3.91458 -5.42873,-8.46789 -4.57618,-3.38062 -5.5607,-4.63349 -5.5607,-7.07638 0,-4.84623 3.02732,-6.98619 9.48786,-6.7068 5.2449,0.22682 5.51121,0.36726 5.51166,2.90655 2.7e-4,1.46752 0.27362,3.38002 0.60747,4.25 1.00595,2.62148 -1.1974,1.77616 -2.43175,-0.93294 -1.61064,-3.53497 -5.76387,-5.32521 -7.74892,-3.34016 -2.20157,2.20156 -0.93903,4.23131 5.14434,8.27044 5.00188,3.32106 5.42934,3.9068 5.42934,7.43968 0,5.61736 -2.29664,7.25659 -9.84937,7.02996 -6.1153,-0.1835 -6.11604,-0.18389 -6.75334,-3.58098 z m 39.60271,2.69579 c 0,-0.55 0.675,-1 1.5,-1 1.2381,0 1.5,-1.83333 1.5,-10.5 0,-10.4971 -6.8e-4,-10.5 -2.46806,-10.5 -1.6641,0 -2.95405,0.89581 -3.95997,2.75 l -1.49189,2.75 -0.04,-4.25 -0.0401,-4.25 h 11 11 v 4 c 0,4.55424 -1.14802,5.16531 -2.81805,1.5 -0.77662,-1.7045 -1.9414,-2.5 -3.66051,-2.5 h -2.52144 v 10.5 c 0,8.66667 0.2619,10.5 1.5,10.5 0.825,0 1.5,0.45 1.5,1 0,0.55 -2.475,1 -5.5,1 -3.025,0 -5.5,-0.45 -5.5,-1 z m 32,0 c 0,-0.55 0.675,-1 1.5,-1 1.23838,0 1.5,-1.83682 1.5,-10.53138 0,-8.43875 -0.29806,-10.64577 -1.5,-11.10699 -5.52845,-2.12147 4.9692,-3.24844 12.97322,-1.39274 6.92157,1.60474 8.50544,6.38034 3.6274,10.93712 l -2.89938,2.70842 3.61893,4.69279 c 1.99041,2.58103 4.19513,4.69278 4.89938,4.69278 0.70425,0 1.28045,0.45 1.28045,1 0,0.55 -1.56042,1 -3.46761,1 -3.03315,0 -3.98787,-0.68909 -7.62014,-5.5 -2.2839,-3.025 -4.54848,-5.5 -5.0324,-5.5 -0.48392,0 -0.87985,2.025 -0.87985,4.5 0,3.33333 0.38889,4.5 1.5,4.5 0.825,0 1.5,0.45 1.5,1 0,0.55 -2.475,1 -5.5,1 -3.025,0 -5.5,-0.45 -5.5,-1 z m 14.50368,-15.00406 c 2.68585,-2.96784 0.68085,-6.99594 -3.48224,-6.99594 -2.9143,0 -3.02144,0.15957 -3.02144,4.5 0,4.05402 0.23241,4.5 2.34501,4.5 1.28976,0 3.16116,-0.90183 4.15867,-2.00406 z m 24.49632,15.3328 c 0,-0.36919 0.62666,-1.38169 1.39259,-2.25 0.76592,-0.86831 3.38495,-6.27675 5.82006,-12.01876 2.43511,-5.74201 4.84595,-10.57294 5.35742,-10.73539 0.51146,-0.16244 3.17993,4.92516 5.92993,11.30578 2.75,6.38063 5.5625,11.8222 6.25,12.09238 2.83931,1.11581 0.92674,2.27725 -3.75,2.27725 -4.59851,0 -6.7128,-1.2624 -3.76176,-2.24608 0.97812,-0.32604 0.98263,-0.97375 0.0214,-3.08333 -1.04784,-2.29984 -1.82217,-2.67059 -5.57769,-2.67059 -3.70271,0 -4.53608,0.38444 -5.52143,2.54705 -1.48352,3.25595 -1.46415,3.45295 0.33948,3.45295 0.825,0 1.5,0.45 1.5,1 0,0.55 -1.8,1 -4,1 -2.2,0 -4,-0.30207 -4,-0.67126 z m 15,-9.86086 c 0,-0.29266 -0.70497,-2.20516 -1.5666,-4.25 l -1.5666,-3.71788 -1.39796,2.5 c -2.33557,4.17673 -1.87029,6 1.53116,6 1.65,0 3,-0.23945 3,-0.53212 z m 26,9.53212 c 0,-0.55 0.675,-1 1.5,-1 1.23838,0 1.5,-1.83682 1.5,-10.53138 0,-8.43875 -0.29806,-10.64577 -1.5,-11.10699 -3.2844,-1.26035 -1.18594,-2.36163 4.5,-2.36163 5.87095,0 8.01057,1.24096 3.96409,2.29914 -1.90649,0.49856 -2.01774,1.18934 -1.75,10.86663 l 0.28591,10.33423 4.26227,-0.0872 c 3.00574,-0.0615 4.99451,-0.77511 6.74606,-2.42061 3.06704,-2.88133 3.83908,-2.2872 2.39835,1.84567 l -1.10233,3.16214 h -10.40218 c -6.26811,0 -10.40217,-0.39742 -10.40217,-1 z m 38,0.11663 c 0,-0.48585 0.9,-1.11872 2,-1.40638 1.82452,-0.47712 2,-1.36401 2,-10.10816 0,-8.50214 -0.22598,-9.72627 -2,-10.83416 -3.31431,-2.06982 -2.30545,-2.76793 4,-2.76793 6.30545,0 7.31431,0.69811 4,2.76793 -1.77402,1.10789 -2,2.33202 -2,10.83416 0,8.74415 0.17548,9.63104 2,10.10816 4.01452,1.04982 1.84847,2.28975 -4,2.28975 -3.3,0 -6,-0.39752 -6,-0.88337 z m 27,0.24361 c 0,-0.35186 0.71498,-1.16256 1.58885,-1.80155 0.87387,-0.63899 3.68637,-6.03709 6.25,-11.99578 2.56363,-5.95869 5.09423,-10.88549 5.62355,-10.94845 0.52931,-0.063 3.13272,4.83554 5.78535,10.88554 2.65263,6.05 5.48205,11.49961 6.28761,12.11024 2.45869,1.86376 1.68054,2.38976 -3.53536,2.38976 -4.47315,0 -6.73328,-1.25557 -3.93761,-2.18746 0.7427,-0.24757 0.75015,-1.17539 0.0247,-3.08334 -0.92014,-2.42029 -1.55253,-2.7292 -5.58709,-2.7292 -4.03456,0 -4.66695,0.30891 -5.58714,2.7292 -0.7254,1.90795 -0.71795,2.83577 0.0247,3.08334 2.53373,0.84456 0.73031,2.18746 -2.93756,2.18746 -2.2,0 -4,-0.28789 -4,-0.63976 z m 15.25001,-9.94359 c 0.75893,-0.75893 -1.84904,-6.97283 -2.82653,-6.73465 -1.07416,0.26173 -3.36804,6.04011 -2.67349,6.73465 0.32084,0.32084 1.55834,0.58335 2.75001,0.58335 1.19167,0 2.42917,-0.26251 2.75001,-0.58335 z m 23.49591,-54.50232 c -4.76852,-1.12386 -13.21911,-5.3709 -17.74592,-8.91864 -1.925,-1.50866 -5.87945,-3.76258 -8.78768,-5.00871 -11.26601,-4.82732 -16.75769,-15.06642 -16.00848,-29.8474 0.50239,-9.91145 2.412,-14.50203 8.46143,-20.34076 5.16741,-4.98744 10.36962,-6.98389 18.32792,-7.03371 10.96146,-0.0686 20.40269,5.43445 25.27955,14.73488 2.99775,5.71687 3.66521,20.7555 1.20688,27.19254 -2.16317,5.66419 -7.56095,11.79814 -12.6805,14.40994 -3.2172,1.64129 -3.6788,2.25383 -2.85643,3.79044 1.546,2.88873 7.33797,7.57901 11.1116,8.99806 7.50354,2.82166 7.63097,2.97488 2.44571,2.9409 -2.75,-0.018 -6.68933,-0.43092 -8.75408,-0.91754 z m -10.9988,-15.90069 c 0.68591,-0.008 3.02159,-1.61678 5.1904,-3.57617 5.21854,-4.71464 7.53302,-11.45481 7.53302,-21.93748 0,-10.43528 -2.31866,-17.22662 -7.47048,-21.88098 -5.31661,-4.80324 -9.67299,-5.48921 -15.7423,-2.47885 -3.91782,1.94322 -5.27883,3.38987 -7.70931,8.19439 -2.61231,5.16395 -2.95712,6.888 -3,15 -0.0333,6.3052 0.50467,10.74936 1.72398,14.24102 2.79988,8.01778 10.45975,14.09507 16.22757,12.87484 1.1,-0.23271 2.5612,-0.42926 3.24712,-0.43677 z M 189.239,391.91988 c -3.4437,-1.74042 -6.26242,-4.11453 -8,-6.73812 -2.64178,-3.98885 -2.6905,-4.36589 -3.18285,-24.62709 -0.275,-11.31692 -0.86406,-21.13872 -1.30902,-21.82622 -0.44496,-0.6875 -1.68246,-1.25 -2.75,-1.25 -1.06754,0 -1.94098,-0.45 -1.94098,-1 0,-0.60606 4.33333,-1 11,-1 6.66667,0 11,0.39394 11,1 0,0.55 -0.88417,1 -1.96482,1 -3.46428,0 -4.03518,3.18803 -4.03518,22.53313 0,20.83775 0.7673,24.13421 6.41996,27.58119 6.46651,3.94327 17.44419,1.68862 21.84973,-4.48761 2.09555,-2.93779 2.24999,-4.32342 2.55605,-22.93299 0.34042,-20.69899 -0.007,-22.69372 -3.94818,-22.69372 -1.03266,0 -1.87756,-0.45 -1.87756,-1 0,-0.58824 3.5,-1 8.5,-1 4.675,0 8.5,0.42011 8.5,0.93358 0,0.51347 -1.2375,1.07597 -2.75,1.25 l -2.75,0.31642 -0.5,21.66587 -0.5,21.66588 -3,4.24506 c -4.18804,5.92617 -9.29199,8.33467 -18.5,8.72993 -6.52833,0.28024 -8.18887,-0.0262 -12.81715,-2.36531 z m 205.81715,1.55857 c 0,-0.55 0.62686,-1 1.39301,-1 2.31491,0 2.60699,-2.40878 2.60699,-21.5 0,-19.09122 -0.29208,-21.5 -2.60699,-21.5 -0.76615,0 -1.39301,-0.50432 -1.39301,-1.12072 0,-1.91448 23.78084,-0.63283 27.82878,1.49981 4.05462,2.13615 6.59398,7.55388 5.7212,12.20618 -0.57207,3.0494 -5.53902,8.57774 -8.63342,9.60921 -1.38042,0.46014 13.40516,20.80552 15.11998,20.80552 0.5299,0 0.96346,0.45 0.96346,1 0,0.55 -2.21115,1 -4.91366,1 h -4.91366 l -8.33634,-10.67157 c -4.58499,-5.86936 -8.89884,-10.85686 -9.58634,-11.08333 -0.94225,-0.31039 -1.25,1.97068 -1.25,9.26519 0,8.83595 0.17382,9.7224 2,10.19996 4.46696,1.16814 1.52792,2.28975 -6,2.28975 -4.66667,0 -8,-0.41667 -8,-1 z m 22.18422,-26.8733 c 2.47213,-2.20884 3.21578,-3.69036 3.21578,-6.40655 0,-4.20717 -1.72289,-6.53792 -6.2234,-8.41914 -6.1913,-2.58797 -7.1766,-1.38441 -7.1766,8.76638 v 8.93261 h 3.48422 c 2.42442,0 4.46238,-0.87398 6.7,-2.8733 z m 29.891,26.30894 c -2.33935,-1.01508 -3.74971,-1.16115 -4.45,-0.46086 -2.12208,2.12208 -2.62361,0.80854 -2.56761,-6.72478 l 0.0576,-7.75 2.35438,5.1788 c 3.67133,8.07565 11.14095,10.80157 16.07586,5.86665 5.31865,-5.31864 2.60705,-10.05573 -10.21442,-17.84436 -6.55902,-3.98439 -8.33103,-6.71719 -8.33103,-12.84814 0,-3.2759 0.65186,-4.70481 3.4,-7.45295 2.9695,-2.9695 4.03979,-3.4 8.45295,-3.4 2.77912,0 6.18579,0.51616 7.57038,1.14702 1.94301,0.8853 2.86647,0.85736 4.04706,-0.12244 1.35132,-1.1215 1.52449,-0.35185 1.48572,6.60298 l -0.0439,7.87244 -1.4171,-4 c -2.68741,-7.58561 -10.94538,-11.04973 -15.49511,-6.5 -4.28325,4.28325 -2.25206,8.56844 6.33866,13.37265 8.67134,4.84929 13.6625,10.46998 13.6576,15.38023 -0.0101,10.11028 -10.73839,16.10121 -20.92104,11.68276 z m 351.94521,-0.68564 c -7.90871,-4.04115 -8.47509,-5.58353 -8.83862,-24.0695 -0.29166,-14.83101 -0.49385,-16.36816 -2.42432,-18.4305 l -2.10612,-2.25 h 8.34863 8.34863 l -2.24465,2.38932 c -2.16604,2.30564 -2.23343,2.9565 -1.92432,18.58444 l 0.32034,16.19512 3.39126,3.02768 c 3.07781,2.74783 3.88725,2.98654 8.75769,2.58265 6.30449,-0.52282 9.82413,-3.22295 11.34699,-8.70495 1.14372,-4.11715 1.33776,-29.03599 0.23875,-30.65972 -0.40408,-0.59701 -1.63469,-1.59582 -2.73469,-2.21959 -1.63644,-0.92797 -0.72755,-1.13413 5,-1.13413 5.72755,0 6.63644,0.20616 5,1.13413 -1.1,0.62377 -2.33061,1.62258 -2.73469,2.21959 -0.40408,0.597 -0.74326,8.28546 -0.75374,17.08546 -0.017,14.26451 -0.23782,16.35883 -2.03597,19.30814 -4.17898,6.85435 -16.45482,9.28533 -24.95517,4.94186 z m 174.54216,0.66699 c -2.6575,-0.97331 -4.2666,-1.11294 -4.95,-0.42954 -2.0935,2.09343 -2.6126,0.80435 -2.6126,-6.48745 0,-7.80209 1.3075,-10.00482 2.4197,-4.07639 0.8056,4.294 6.5382,9.57639 10.3926,9.57639 5.8215,0 10.1672,-5.7561 7.9762,-10.56478 -0.6407,-1.40626 -4.8781,-5.00214 -9.4164,-7.99084 -4.5383,-2.9887 -8.9536,-6.43646 -9.8117,-7.66169 -3.1053,-4.43339 -1.2176,-12.80806 3.6564,-16.22199 2.6815,-1.87815 9.8329,-2.03008 14.6254,-0.3107 2.7873,1 3.5682,1 3.9043,0 1.1623,-3.45775 2.2535,-0.43133 2.2535,6.25 0,7.63377 -1.2529,9.98539 -2.363,4.4351 -1.5519,-7.75948 -10.7817,-11.6033 -15.585,-6.49046 -4.2313,4.50405 -2.3599,7.24377 10.7241,15.69963 6.9716,4.50556 9.2239,7.84381 9.2239,13.67121 0,9.40991 -9.8045,14.49582 -20.4374,10.60151 z m 165.43736,0.58301 c 0,-0.55 0.6269,-1 1.393,-1 2.3293,0 2.607,-2.41562 2.607,-22.67541 0,-18.67083 -0.086,-19.53437 -2,-20.03484 -5.0888,-1.33075 -0.9704,-2.28761 9.75,-2.2653 19.3815,0.0403 26.4196,2.8472 30.8161,12.28992 6.6282,14.23604 -0.93,30.45333 -15.666,33.61363 -6.3959,1.37167 -26.9001,1.42656 -26.9001,0.072 z m 27.7616,-4.74347 c 13.6817,-6.27303 13.575,-30.11218 -0.1627,-36.3511 -2.2953,-1.04241 -6.409,-1.87117 -9.3489,-1.88347 l -5.25,-0.022 v 19.92668 c 0,18.14286 0.1567,19.96621 1.75,20.36834 2.6816,0.67681 9.3774,-0.37219 13.0116,-2.03849 z M 17.55499,392.41243 c 5.363441,-1.59913 5.50116,-2.30323 5.50116,-28.12511 v -23.80887 h -6.928571 c -7.6892917,0 -9.7569737,1.17773 -10.7455357,6.12054 -0.950836,4.75418 -2.325893,3.25328 -2.325893,-2.53875 0,-9.23414 -1.908531,-8.58179 25.1069887,-8.58179 h 23.893008 l -0.0412,7.25 -0.0412,7.25 -2.20878,-4.5 -2.20878,-4.5 -7.26756,-0.29416 -7.267569,-0.29417 0.267566,24.79417 0.267566,24.79416 3.5,1.74845 3.499997,1.74845 -12.999997,-0.0844 c -9.321165,-0.0605 -12.151366,-0.33743 -10.00116,-0.97852 z m 41.278657,-0.49068 c 2.16956,-1.51963 2.2225,-2.02886 2.2225,-21.37803 0,-19.42374 -0.0451,-19.85281 -2.25,-21.39085 -2.1208,-1.47939 -1.76192,-1.56952 6.25,-1.56952 8.01193,0 8.37081,0.0901 6.25,1.56952 -2.04652,1.42758 -2.25,2.37242 -2.25,10.44755 v 8.87803 h 10 10 v -8.04775 c 0,-7.41818 -0.20699,-8.23958 -2.64602,-10.5 l -2.64602,-2.45225 8.89602,0.0304 c 7.15157,0.0244 8.503843,0.2528 6.89602,1.16454 -1.1,0.62377 -2.33061,1.62258 -2.73468,2.21959 -0.40408,0.597 -0.74158,9.43695 -0.75,19.64433 -0.0156,18.89854 0.35161,20.94872 3.984683,22.24715 0.825,0.29485 -2.550003,0.54309 -7.500003,0.55165 -6.18785,0.0107 -8.3142,-0.26065 -6.80518,-0.86842 2.66687,-1.0741 3.54182,-5.00421 3.1144,-13.98925 l -0.30922,-6.49999 -9.75,-0.28621 -9.75,-0.28621 v 9.4795 c 0,8.66224 0.19162,9.61372 2.22251,11.03622 2.08658,1.46149 1.70602,1.55671 -6.22251,1.55671 -7.92853,0 -8.30908,-0.0952 -6.2225,-1.55671 z m 48.222503,0.8754 c 3.62836,-1.32741 4,-3.37679 4,-22.05758 v -18.35662 l -2.64602,-2.45225 -2.64603,-2.45225 h 17.14603 17.14602 l -0.0391,5.75 -0.0391,5.75 -1.37948,-3.17126 c -1.93344,-4.44477 -4.4729,-5.46037 -12.80777,-5.12224 l -7.23455,0.2935 -0.29113,8.2928 -0.29114,8.29281 7.76504,-0.29281 c 7.14047,-0.26925 7.86649,-0.49388 9.02639,-2.7928 1.12988,-2.23941 1.25584,-1.77034 1.20842,4.5 -0.0436,5.77177 -0.24334,6.60521 -1.13807,4.75 -0.98868,-2.04999 -1.78269,-2.25 -8.93232,-2.25 h -7.84719 v 7.91821 c 0,11.36657 -0.24491,11.08179 9.53026,11.08179 7.45004,0 8.6312,-0.26498 11.33957,-2.54392 1.6628,-1.39916 3.30265,-3.42416 3.64411,-4.5 0.34146,-1.07584 0.99181,-1.95608 1.44523,-1.95608 0.45342,0 0.0242,2.5875 -0.95379,5.75 l -1.77818,5.75 -17.8636,0.18373 c -9.82498,0.10105 -17.1886,-0.0632 -16.3636,-0.36503 z m 128,-0.0127 c 3.58402,-1.2809 4,-3.41935 4,-20.56289 0,-10.0123 -0.43262,-17.68297 -1.06382,-18.86238 -0.5851,-1.09328 -2.4976,-2.86201 -4.25,-3.93052 l -3.18618,-1.94275 6.5,0.033 6.5,0.033 13,15.15185 13,15.15185 0.28058,-13.41124 c 0.27078,-12.94302 0.20095,-13.47251 -2,-15.16636 -2.24376,-1.72679 -2.17563,-1.75464 4.21942,-1.72491 6.19839,0.0288 6.3956,0.10304 4.25,1.59973 -2.21422,1.54457 -2.25,1.90945 -2.25,22.94755 0,11.75796 -0.37403,21.37808 -0.83117,21.37808 -0.45715,0 -7.54465,-7.76251 -15.75,-17.25001 l -14.91883,-17.25 -0.28751,14 c -0.33013,16.07478 0.0125,18.25066 3.06743,19.47991 1.61358,0.64927 0.30776,0.88907 -4.77992,0.87776 -3.85,-0.009 -6.325,-0.2568 -5.5,-0.55165 z m 50.75,-0.52651 c 2.2234,-1.07231 2.25,-1.32424 2.25,-21.31035 0,-19.84259 -0.0426,-20.25491 -2.25,-21.79474 -2.1208,-1.47939 -1.76193,-1.56952 6.25,-1.56952 8.01193,0 8.3708,0.0901 6.25,1.56952 -2.20487,1.53804 -2.25,1.96711 -2.25,21.39085 0,19.34917 0.0529,19.8584 2.22251,21.37803 2.08391,1.45962 1.69416,1.55248 -6.25,1.48902 -6.83938,-0.0546 -8.03881,-0.27685 -6.22251,-1.15281 z m 32.18018,-20.38772 c -5.13182,-11.88451 -9.91549,-21.83266 -10.63038,-22.10699 -3.38677,-1.29962 -0.57479,-2.28182 6.4502,-2.253 6.65951,0.0273 7.50376,0.21873 6,1.36025 -0.9625,0.73064 -1.75,1.80644 -1.75,2.39066 0,1.26722 10.85244,26.40147 11.84599,27.4353 0.37952,0.39491 3.26886,-5.64529 6.42076,-13.42265 5.37904,-13.27288 5.62924,-14.25281 4.077,-15.96801 -1.58132,-1.74733 -1.42803,-1.82733 3.50126,-1.82733 4.84397,0 6.78661,1.15991 3.83781,2.29147 -0.72446,0.278 -5.11196,10.2218 -9.75,22.09733 -4.63805,11.87554 -8.93665,21.59623 -9.55244,21.60154 -0.61579,0.005 -5.31838,-9.71403 -10.4502,-21.59855 z m 38.84731,20.05151 c 2.16684,-1.51769 2.22251,-2.04275 2.22251,-20.96103 0,-18.67386 -0.0824,-19.4811 -2.18856,-21.44329 l -2.18856,-2.03896 h 16.55973 16.55973 l 0.67876,5.11674 c 0.79959,6.02762 0.0467,7.52378 -1.52177,3.02431 -1.50459,-4.31606 -3.48377,-5.14105 -12.33359,-5.14105 h -7.56574 v 8.5 8.5 h 7.52475 c 7.10627,0 7.57761,-0.13904 8.47525,-2.5 1.50665,-3.96278 2,-2.97607 2,4 0,6.266 -1.2074,8.63889 -2.28975,4.5 -0.46537,-1.77959 -1.36401,-2 -8.15416,-2 h -7.63114 l 0.28752,9.25 0.28753,9.25 8,0.25547 c 9.29852,0.29693 12.34462,-0.85604 14.5,-5.48839 1.5119,-3.24936 3.75088,-4.66622 2.58897,-1.63833 -0.34376,0.89582 -1.12033,3.59582 -1.72571,6 l -1.10069,4.37126 h -17.60379 c -16.21794,0 -17.42883,-0.12256 -15.38129,-1.55671 z m 117.22251,0.26342 2.5,-1.26381 0.28426,-18.47145 c 0.15634,-10.15929 0.0536,-19.41081 -0.22827,-20.55893 -0.28188,-1.14811 -1.5348,-2.58016 -2.78425,-3.18232 -1.82844,-0.88119 -0.51552,-1.0978 6.72826,-1.11006 8.46411,-0.0143 8.86603,0.0782 6.75,1.55429 -2.20858,1.54063 -2.25,1.9453 -2.25,21.97978 0,20.23155 0.0197,20.41817 2.25,21.31464 1.59927,0.64283 -0.35292,0.91846 -6.75,0.95303 -7.88624,0.0426 -8.69062,-0.10775 -6.5,-1.21517 z m 33.75,0.26214 c 2.22861,-0.89579 2.25,-1.09532 2.25,-20.98433 v -20.07994 l -6.14602,0.29771 c -6.21829,0.30122 -6.70223,0.60435 -8.45777,5.29772 -0.70239,1.87783 -0.77318,1.85456 -1.15887,-0.38099 -0.22592,-1.30955 -0.12636,-3.89705 0.22126,-5.75 l 0.63203,-3.36901 h 19.45468 19.45469 l -0.048,5.75 -0.048,5.75 -1.70706,-3.5 c -1.64975,-3.38249 -1.91674,-3.51 -7.95197,-3.79772 l -6.24497,-0.29771 v 19.49101 c 0,19.00784 0.0551,19.5296 2.22251,21.04772 2.08406,1.45973 1.69475,1.55276 -6.25,1.49331 -6.09324,-0.0456 -7.84066,-0.31735 -6.22251,-0.96777 z m 44.25,0.33718 c 3.04171,-1.08708 4,-3.71611 4,-10.97387 v -7.2856 l -8.09521,-12.27327 c -4.45237,-6.75031 -8.72737,-12.41878 -9.5,-12.5966 -0.77264,-0.17783 -1.40479,-0.74033 -1.40479,-1.25 0,-0.50968 3.66974,-0.92668 8.15499,-0.92668 7.97557,0 8.11679,0.0422 6.41913,1.9181 -1.66722,1.84226 -1.49134,2.28173 4.44874,11.1159 l 6.1846,9.19782 5.39627,-9.22854 c 2.96795,-5.07569 5.39627,-9.46574 5.39627,-9.75566 0,-0.28993 -0.7875,-1.12493 -1.75,-1.85557 -1.52056,-1.15427 -0.99613,-1.33261 4,-1.36025 3.1625,-0.0175 5.75,0.24094 5.75,0.57428 0,0.33334 -1.06947,1.44733 -2.3766,2.47552 -1.30713,1.02819 -5.13213,6.59313 -8.5,12.36653 l -6.1234,10.49709 v 9.05962 c 0,8.46052 0.14879,9.11941 2.25,9.964 1.58619,0.63757 -0.40525,0.8998 -6.75,0.88883 -4.95,-0.009 -8.325,-0.2568 -7.5,-0.55165 z m 71.6275,-0.77419 c -6.15441,-2.19379 -10.86903,-6.62091 -14.45849,-13.57681 -3.18498,-6.17208 -3.31379,-6.84951 -2.93858,-15.45502 0.80903,-18.555 10.24093,-28.67647 26.72276,-28.67647 18.02296,0 28.9702,12.6644 27.83898,32.20571 -0.35882,6.19833 -1.03549,8.74909 -3.47121,13.08498 -3.4125,6.07467 -9.55855,11.30222 -15.09622,12.84017 -5.14855,1.42989 -13.96225,1.22963 -18.59724,-0.42256 z M 637.113,389.4792 c 4.48738,-1.2466 8.20439,-5.10078 11.09143,-11.50075 1.81865,-4.03155 2.26273,-6.84026 2.29275,-14.50109 0.033,-8.40943 -0.28303,-10.15569 -2.75013,-15.19825 -4.65561,-9.51573 -12.53388,-12.7944 -20.68545,-8.6086 -15.75866,8.09202 -13.84693,44.85039 2.58826,49.76667 3.8823,1.16132 3.4429,1.15885 7.46314,0.042 z m 30.69315,2.96809 c 2.2303,-0.89647 2.25,-1.08309 2.25,-21.31464 0,-20.03448 -0.0414,-20.43915 -2.25,-21.97978 -2.08223,-1.45248 -0.93442,-1.57343 15.39301,-1.62197 19.70409,-0.0586 18.88971,-0.3736 18.81785,7.27934 l -0.0391,4.16821 -1.37948,-3.17126 c -1.94116,-4.46241 -4.21342,-5.32874 -13.97654,-5.32874 h -8.56574 v 8.5 8.5 h 7.46806 c 7.11864,0 7.53787,-0.12867 8.95997,-2.75 1.44174,-2.65755 1.49148,-2.51467 1.47948,4.25 -0.0118,6.65061 -0.0907,6.8877 -1.58193,4.75 -1.38808,-1.98989 -2.42663,-2.25 -8.98376,-2.25 h -7.41424 l 0.28621,9.72301 c 0.27188,9.23622 0.41138,9.78621 2.78621,10.98526 2.18942,1.10543 1.38191,1.25621 -6.5,1.21361 -6.39708,-0.0346 -8.34927,-0.31021 -6.75,-0.95304 z m 168.25,0.34986 c 3.63765,-1.33081 4,-3.36237 4,-22.42642 v -18.72547 l -2.75,-2.05172 -2.75,-2.05173 17.25,-0.0317 17.25,-0.0317 -0.13618,5.75 c -0.0749,3.1625 -0.33003,4.74647 -0.56694,3.51993 -0.23692,-1.22655 -1.60849,-3.15648 -3.04794,-4.28875 -2.21256,-1.74041 -3.78688,-2.01404 -10.18306,-1.76993 l -7.56588,0.28875 -0.29113,8.2928 -0.29114,8.29281 7.76504,-0.29281 c 7.14047,-0.26925 7.86649,-0.49388 9.02639,-2.7928 1.13014,-2.23993 1.2563,-1.77181 1.21271,4.5 -0.0361,5.20081 -0.28109,6.42169 -0.95303,4.75 -0.83265,-2.07152 -1.54154,-2.25 -8.93662,-2.25 h -8.03222 v 7.91821 c 0,11.36657 -0.24491,11.08179 9.53026,11.08179 7.45004,0 8.6312,-0.26498 11.33957,-2.54392 1.6628,-1.39916 3.30265,-3.42416 3.64411,-4.5 0.34146,-1.07584 0.99181,-1.95608 1.44523,-1.95608 0.45342,0 0.0242,2.5875 -0.95379,5.75 l -1.77818,5.75 -17.8636,0.18373 c -9.82498,0.10105 -17.1886,-0.0632 -16.3636,-0.36503 z m 41.30679,-0.019 c 3.05249,-0.79107 3.69321,-4.76607 3.69321,-22.91255 v -17.48265 l -2.67296,-2.47721 -2.67296,-2.47722 16.92296,0.27497 16.92296,0.27496 0.24375,5.5 0.24376,5.5 -1.41238,-3.17126 c -1.98189,-4.45004 -4.51383,-5.46005 -12.84066,-5.12224 l -7.23447,0.2935 -0.29113,8.2928 -0.29114,8.29281 7.76504,-0.29281 c 7.14047,-0.26925 7.86649,-0.49388 9.02639,-2.7928 1.13446,-2.24848 1.26284,-1.79852 1.2761,4.47251 0.0139,6.59395 -0.0698,6.85184 -1.54196,4.75 -1.37157,-1.95819 -2.44193,-2.22251 -9,-2.22251 h -7.4433 v 7.91821 c 0,11.35922 -0.23714,11.08179 9.47213,11.08179 9.09568,0 12.63729,-1.65544 14.72175,-6.88132 1.80281,-4.51977 2.06228,-0.40598 0.3076,4.87686 l -1.66221,5.00447 -17.66964,-0.11601 c -9.7183,-0.0638 -16.85658,-0.32672 -15.86284,-0.58426 z m 40.69321,0.006 c 3.58402,-1.2809 4,-3.41935 4,-20.56289 0,-10.0123 -0.43262,-17.68297 -1.06382,-18.86238 -0.5851,-1.09328 -2.4976,-2.86201 -4.25,-3.93052 l -3.18618,-1.94275 6.5,0.0258 6.5,0.0258 12.99999,15.10588 13,15.10588 0.2806,-13.35808 c 0.2707,-12.88774 0.2003,-13.41987 -2,-15.1132 -2.2438,-1.72679 -2.1756,-1.75464 4.2194,-1.72491 6.1984,0.0288 6.3956,0.10304 4.25,1.59973 -2.2142,1.54457 -2.25,1.90945 -2.25,22.94755 0,11.75796 -0.3912,21.37808 -0.8694,21.37808 -0.4782,0 -7.3407,-7.62264 -15.25,-16.93919 -7.90934,-9.31654 -14.71809,-16.96654 -15.13059,-17 -0.4125,-0.0334 -0.75,6.60317 -0.75,14.74805 0,15.00174 0.48416,17.24062 4,18.49715 0.825,0.29485 -1.65,0.53609 -5.5,0.53609 -3.85,0 -6.325,-0.24124 -5.5,-0.53609 z m 84.77745,-0.86272 c 2.1696,-1.51963 2.2225,-2.02886 2.2225,-21.37803 0,-19.42374 -0.045,-19.85281 -2.25,-21.39085 -2.117,-1.47673 -1.7179,-1.57025 6.75,-1.58193 8.567,-0.0118 8.8667,0.0599 6.229,1.49049 l -2.771,1.5029 0.271,19.70706 0.271,19.70706 7.8584,0.29401 c 8.8674,0.33177 11.5501,-0.78262 14.1945,-5.89636 2.3517,-4.54755 2.7934,-2.8968 0.9353,3.49486 l -1.6301,5.60749 h -17.1516 c -15.8086,0 -16.9775,-0.12189 -14.929,-1.5567 z m 37.1627,0.29196 c 1.9174,-0.9706 4.3833,-5.91679 11.5089,-23.08533 4.9878,-12.01753 9.5147,-21.87875 10.0598,-21.91382 0.5451,-0.0351 5.1591,9.57247 10.2534,21.35007 5.0943,11.7776 10.2066,22.20132 11.3608,23.16382 2.0324,1.69493 1.8397,1.75001 -6.1231,1.75001 -7.9272,0 -8.1498,-0.0627 -6.2166,-1.75001 2.0023,-1.7477 2.0018,-1.7569 -0.3698,-7 l -2.3746,-5.25 h -8.3355 -8.3355 l -2.3411,5.6485 c -2.262,5.45728 -2.2786,5.69425 -0.4929,7 1.6224,1.18635 1.0612,1.34971 -4.5929,1.33677 -5.767,-0.0132 -6.1857,-0.14403 -4.0009,-1.25001 z m 25.9919,-17.48526 c -0.037,-0.4125 -1.5027,-3.8409 -3.2563,-7.61867 l -3.1885,-6.86868 -3.1801,7.61868 -3.18,7.61867 h 6.4364 c 3.54,0 6.4058,-0.3375 6.3685,-0.75 z m 25.0679,17.4567 2.5,-1.26381 0.273,-18.34124 c 0.2948,-19.80052 0.2802,-19.86473 -5.273,-23.25997 l -3,-1.8342 6.5684,-0.004 6.5683,-0.004 12.9317,15.1608 12.9316,15.16081 0.2806,-13.38344 c 0.2707,-12.91412 0.2006,-13.44499 -2,-15.13857 -2.2394,-1.72339 -2.154,-1.75498 4.7194,-1.74696 5.7302,0.007 6.6372,0.21391 5,1.14231 -1.1,0.62377 -2.3306,1.62258 -2.7347,2.21959 -0.4041,0.597 -0.7416,10.42296 -0.75,21.83546 -0.01,11.4125 -0.3836,20.75001 -0.8337,20.75001 -0.6646,0 -21.7396,-23.98902 -28.4094,-32.3374 -1.655,-2.07156 -1.7287,-1.4771 -1.75,14.11961 -0.022,15.96038 0.022,16.30011 2.2278,17.18662 1.6717,0.67194 0.4508,0.91689 -4.75,0.95304 -6.2765,0.0436 -6.7416,-0.082 -4.5,-1.21518 z M 578.05615,306.85347 c -8.82879,-1.12186 -20.15396,-3.55825 -26.52682,-5.70673 l -6.97318,-2.35087 -0.27671,-13.42723 -0.27672,-13.42724 -6.72328,-2.39875 c -3.69781,-1.31931 -9.51925,-3.64724 -12.93654,-5.17316 l -6.21324,-2.77441 -0.28676,8.97942 -0.28675,8.97941 -13.79554,-8.67906 c -7.58755,-4.77349 -15.12505,-9.92101 -16.75,-11.43895 -2.76315,-2.58116 -2.95446,-3.24406 -2.95446,-10.2375 v -7.47763 l -7.25595,-5.46127 c -3.99078,-3.00369 -10.06578,-7.79962 -13.5,-10.65761 l -6.24405,-5.19635 v -19.46355 -19.46353 h 15.2576 15.25761 l 12.99239,20.48831 12.9924,20.48833 13,6.43379 c 15.67686,7.75858 29.25788,12.88736 44,16.61631 l 11,2.78239 0.28078,12.09543 0.28078,12.09543 h 11.43844 11.43844 l 0.28078,-12.09543 0.28078,-12.09543 11,-2.80672 c 15.56399,-3.97124 26.89422,-8.16153 43.01105,-15.90687 l 14.01106,-6.73337 12.94945,-20.68109 12.94945,-20.68108 h 15.28949 15.2895 v 19.40105 19.40105 l -5.75,4.93153 c -3.1625,2.71235 -9.2375,7.53639 -13.5,10.72011 l -7.75,5.78857 v 7.52014 c 0,7.20636 -0.1356,7.64446 -3.25,10.49986 -1.7875,1.63885 -9.325,6.78287 -16.75,11.43115 l -13.5,8.45142 -0.28583,-8.94405 -0.28582,-8.94405 -8.71418,3.75672 c -4.79279,2.06619 -10.61441,4.32597 -12.93693,5.02173 l -4.22276,1.26501 -0.27724,13.50582 -0.27724,13.50583 -5.5,1.92251 c -11.51071,4.02356 -23.06532,5.84276 -39.5,6.21903 -8.8,0.20147 -17.575,0.16618 -19.5,-0.0784 z m 35.60392,-7.45276 c 4.26175,-0.59275 10.93181,-2.07365 14.82236,-3.29089 l 7.07372,-2.21315 0.28781,-9.84167 0.28781,-9.84167 -3.28781,0.6921 c -16.40377,3.45307 -21.35204,3.95923 -38.78781,3.9676 -14.88239,0.007 -20.78849,-0.42166 -30.20306,-2.19285 -6.43668,-1.21095 -11.96548,-2.20173 -12.28621,-2.20173 -0.32074,0 -0.45436,4.3691 -0.29694,9.70911 l 0.28621,9.70911 7.26339,2.27255 c 3.99486,1.24991 10.06986,2.67527 13.5,3.16747 8.97174,1.28738 32.28534,1.32348 41.34053,0.064 z m -22.78587,-3.42226 c -1.49066,-3.27164 -7.28948,-3.62925 -8.1078,-0.5 -0.28766,1.1 -1.28828,2 -2.22362,2 -0.95798,0 -1.48432,-0.54585 -1.2053,-1.25 7.44406,-18.78652 7.74734,-18.88221 13.27772,-4.18935 2.01251,5.34675 2.16707,6.43935 0.91092,6.43935 -0.83207,0 -2.02543,-1.125 -2.65192,-2.5 z m -1.81805,-4.9349 c 0,-0.2392 -0.49956,-1.7017 -1.11013,-3.25 -1.0315,-2.61568 -1.16819,-2.67342 -1.92972,-0.8151 -1.34925,3.29254 -1.07023,4.5 1.03985,4.5 1.1,0 2,-0.19571 2,-0.4349 z m 9.02544,5.46034 c -1.08601,-1.08601 -2.26199,-3.11975 -2.61328,-4.51942 -0.77445,-3.08564 1.19642,-8.22617 3.65925,-9.54424 3.90294,-2.08879 10.92859,-0.43443 10.92859,2.5734 0,1.94565 -1.90915,1.85701 -4.17532,-0.19384 -4.01255,-3.63131 -9.04713,2.31317 -6.85107,8.08926 1.26752,3.33383 6.90522,3.74875 7.73664,0.5694 0.56704,-2.16836 3.29948,-2.79422 3.27444,-0.75 -0.0224,1.82689 -1.19628,3.29879 -3.66895,4.6003 -3.21095,1.69011 -6.05867,1.40677 -8.2903,-0.82486 z m -87.03213,-33.77544 -0.007,-4.75 -6.74331,-3.72893 c -3.70882,-2.05092 -8.20581,-4.68261 -9.99331,-5.84821 l -3.24969,-2.11926 v 4.11628 c 0,4.0993 0.0402,4.14291 9.75,10.56537 5.3625,3.54699 9.8625,6.46385 10,6.48191 0.1375,0.0181 0.24699,-2.10466 0.24331,-4.71716 z m 179.25669,-4.43911 c 5.4182,-3.66121 5.75,-4.11975 5.75,-7.94635 v -4.06094 l -3.25,2.11926 c -1.7875,1.1656 -6.28449,3.79729 -9.99331,5.84821 l -6.74331,3.72893 -0.007,4.76254 -0.007,4.76255 4.25,-2.6644 c 2.3375,-1.46541 6.8375,-4.41283 10,-6.5498 z m -128.62755,1.72989 c 6.23184,-3.74317 10.14897,-6.65786 9.31561,-6.93161 -0.79093,-0.25982 -5.71306,-1.66594 -10.93806,-3.12473 -32.57635,-9.09507 -74.04504,-33.06281 -92.25,-53.3179 l -3.75,-4.17229 v 12.47641 12.47642 l 9.75,7.59328 c 22.80556,17.76091 46.86288,31.69764 66.25,38.37951 4.675,1.61126 9.03298,2.96344 9.6844,3.00485 0.65141,0.0414 6.02354,-2.83137 11.93805,-6.38394 z m -13.34317,2.41917 c -0.29342,-1.12202 -1.80394,-2.69702 -3.35672,-3.5 -3.52795,-1.82437 -3.92256,-1.82034 -3.92256,0.0401 0,0.82707 -0.88614,1.5 -1.97525,1.5 -2.17233,0 -2.17546,0.0155 1.87929,-9.33328 1.21756,-2.80726 2.62019,-4.66384 3.34612,-4.42906 1.15621,0.37394 6.54502,13.68038 6.68712,16.51234 0.10336,2.05998 -2.08262,1.41023 -2.658,-0.79005 z m -2.34957,-7.20995 c -0.0386,-0.6875 -0.42207,-2.15 -0.85203,-3.25 -0.75766,-1.93838 -0.8037,-1.93095 -1.49426,0.24105 -0.75243,2.3666 -0.0968,4.25895 1.4756,4.25895 0.51754,0 0.90935,-0.5625 0.87069,-1.25 z m -11.72471,3.38062 c -0.9217,-0.57243 -1.20996,-3.00394 -1,-8.4349 0.22976,-5.94301 0.58141,-7.45274 1.59,-6.82634 0.9217,0.57243 1.20996,3.00394 1,8.4349 -0.22976,5.94301 -0.58141,7.45274 -1.59,6.82634 z m -8.955,-3.87679 c -0.8374,-0.2817 -1.25,-2.68128 -1.25,-7.26978 0,-5.97102 -0.25645,-6.93067 -2,-7.48405 -1.1,-0.34913 -2,-1.27068 -2,-2.04789 0,-2.09468 10.39685,2.65448 10.83915,4.9512 0.28638,1.48703 0.0199,1.59165 -1.70391,0.66907 -1.94642,-1.04169 -2.05742,-0.79238 -2.33931,5.25418 -0.21163,4.53952 -0.65201,6.22798 -1.54593,5.92727 z m -12.91163,-11.50383 -2.83837,-7.25 -0.30493,5.32686 c -0.25839,4.51392 -0.52545,5.14383 -1.75,4.12756 -1.92189,-1.59503 -2.105,-16.3394 -0.19507,-15.70758 1.36672,0.45212 2.77659,2.86481 5.69935,9.75316 l 1.90938,4.5 0.0706,-5.30902 c 0.0435,-3.26893 0.45491,-5.07152 1.07064,-4.69098 1.25029,0.77272 1.33452,16.5 0.0884,16.5 -0.5014,0 -2.1889,-3.2625 -3.75,-7.25 z m -13.58837,-2.8801 -4.75,-3.10658 v -7.96322 -7.96322 l 3.75,2.23576 c 2.0625,1.22966 4.39821,2.83065 5.19048,3.55775 2.2427,2.05824 0.41449,2.83221 -2.37409,1.00507 -2.99697,-1.9637 -3.56358,-2.02478 -3.5754,-0.38546 -0.005,0.6875 1.45466,2.45288 3.2436,3.92306 3.73154,3.06664 3.23197,4.83397 -0.64783,2.29183 -2.50564,-1.64176 -2.58676,-1.62753 -2.58676,0.45383 0,1.39568 1.22661,2.87245 3.5,4.21378 1.925,1.13578 3.5,2.6956 3.5,3.46628 0,1.79666 0.28321,1.88993 -5.25,-1.72888 z m -8,-5.44764 c -0.4125,-0.41558 -0.75,-4.37059 -0.75,-8.78893 0,-5.58547 0.31838,-7.71495 1.04486,-6.98847 0.60208,0.60208 0.9199,4.32653 0.75,8.78893 -0.16217,4.25923 -0.63236,7.40405 -1.04486,6.98847 z m -10.71934,-7.88963 c -4.00979,-4.26822 -3.88744,-15.53263 0.16871,-15.53263 0.52496,0 2.26986,1.31538 3.87755,2.92308 2.87376,2.87376 3.88742,6.07692 1.92308,6.07692 -0.55,0 -1,-0.60526 -1,-1.34501 0,-1.88464 -3.65276,-4.98763 -4.93699,-4.19393 -1.39785,0.86392 -1.35786,5.7977 0.0724,8.93688 1.37626,3.02056 3.73123,4.11307 4.50719,2.09094 0.75064,-1.95613 2.35736,-0.88597 2.35736,1.57014 0,2.81787 -4.1199,2.5067 -6.96934,-0.52639 z m -10.30607,-8.28446 c -2.04862,-2.2637 -3.9516,-7.24817 -2.76723,-7.24817 0.49933,0 1.17468,0.84065 1.50078,1.86812 0.32611,1.02746 1.48143,2.6722 2.56739,3.65498 1.88497,1.70588 1.97447,1.70651 1.97447,0.0139 0,-0.97513 -1.35,-3.31054 -3,-5.18978 -3.74627,-4.26676 -4.24764,-9.67179 -0.85033,-9.16677 2.71039,0.4029 6.17235,4.95616 5.65663,7.43973 -0.32646,1.57218 -0.62895,1.40095 -1.84832,-1.04634 -1.52094,-3.05251 -3.95798,-4.61596 -3.95798,-2.53919 0,0.66073 1.35,2.73889 3,4.61813 3.52508,4.01485 4.18398,9.34722 1.15499,9.34722 -1.01476,0 -2.55844,-0.78832 -3.4304,-1.75183 z m 182.58475,42.16617 c 22.87875,-9.00543 43.0529,-20.90399 61.94066,-36.53213 l 8.75,-7.23993 v -12.26128 -12.26127 l -5.25,5.55615 c -19.42975,20.56281 -58.29138,42.72662 -90.91166,51.84931 -5.13609,1.43637 -9.98656,2.82458 -10.77882,3.08491 -1.47047,0.48317 18.28432,13.15262 20.74982,13.3076 0.72014,0.0453 7.69514,-2.43125 15.5,-5.50336 z m -10.09997,-5.57249 c 0.19319,-5.43799 0.70973,-8.31962 1.54063,-8.59469 0.91475,-0.30284 1.25,1.33993 1.25,6.12515 v 6.53897 l 4,-1.41128 c 3.48106,-1.22819 4,-1.22244 4,0.0444 0,0.8006 -0.1125,1.45587 -0.25,1.45614 -0.1375,2.8e-4 -2.63078,0.90539 -5.54063,2.01137 l -5.29062,2.01085 z m 12.81442,1.87677 c 0.0676,-3.46253 4.86675,-17.25349 6.08804,-17.49473 0.82188,-0.16234 2.78802,2.25267 4.77189,5.86133 2.63407,4.79138 3.08427,6.31653 2.05273,6.95405 -0.82787,0.51166 -1.78857,0.18999 -2.57244,-0.86132 -1.13931,-1.52802 -1.50187,-1.54093 -4.05755,-0.14453 -1.54356,0.84338 -2.94527,2.49283 -3.11493,3.66545 -0.32673,2.25824 -3.20826,4.0955 -3.16774,2.01975 z m 7.9609,-10.07561 c -0.0194,-1.4449 -1.94386,-4.49515 -1.98303,-3.14301 -0.0159,0.55 -0.30206,2.01919 -0.63583,3.26486 -0.48274,1.80164 -0.27542,2.13768 1.01365,1.64301 0.89129,-0.34201 1.61363,-1.1362 1.60521,-1.76486 z m 8.01531,-4.45887 v -7.81586 l 3.88615,-2.18414 c 5.69968,-3.2034 7.45108,-2.9352 6.86597,1.0514 -0.26118,1.77955 0.004,4.00178 0.58851,4.93829 1.57499,2.52196 -0.86765,6.35894 -5.9408,9.33201 -2.34079,1.37179 -4.51334,2.49416 -4.8279,2.49416 -0.31456,0 -0.57193,-3.51714 -0.57193,-7.81586 z m 8.57208,-0.41126 c 0.84161,-2.65166 0.13069,-3.05021 -2.94285,-1.64981 -1.73828,0.79202 -2.62923,1.98346 -2.62923,3.51601 0,2.10488 0.22813,2.2141 2.48078,1.18772 1.36443,-0.62167 2.75551,-1.99594 3.0913,-3.05392 z m -2.13562,-4.90156 c 1.83945,-1.44691 2.3795,-2.45536 1.68621,-3.14865 -1.29861,-1.29861 -6.12267,1.69572 -6.12267,3.80038 0,2.03508 1.25515,1.85069 4.43646,-0.65173 z m 7.17053,1.54689 c -1.85512,-4.83435 0.91095,-12.3416 5.59433,-15.18331 6.96269,-4.22471 8.14482,7.21904 1.4994,14.5151 -2.37289,2.60522 -6.21167,2.96682 -7.09373,0.66821 z m 7.86733,-4.36855 c 1.93683,-3.74541 1.93916,-6.46161 0.007,-8.06523 -2.96971,-2.46464 -7.45102,4.38469 -5.95425,9.10061 0.92076,2.90105 4.20763,2.32883 5.94733,-1.03538 z m 5.73207,-8.67026 0.29361,-7.79253 4.25619,-2.98725 c 4.87078,-3.41859 7.00658,-2.73604 5.31995,1.70012 -0.68193,1.79362 -0.65085,3.62179 0.0981,5.77023 0.86942,2.49402 0.80962,3.3241 -0.28898,4.01121 -1.0213,0.63877 -1.4684,0.21645 -1.70168,-1.60739 -0.37597,-2.93932 -0.95261,-3.01705 -3.93358,-0.53023 -1.4255,1.1892 -2.25,2.9876 -2.25,4.90772 0,1.66688 -0.46963,3.32093 -1.04361,3.67567 -0.69972,0.43246 -0.94686,-1.92279 -0.75,-7.14755 z m 5.47916,-4.55371 c 2.24742,-2.11135 3.11193,-4.82569 1.53696,-4.82569 -1.84121,0 -5.22251,3.27396 -5.22251,5.0567 0,2.50342 0.83027,2.45138 3.68555,-0.23101 z m 7.31445,-5.0003 c 0,-7.33843 0.0437,-7.46217 4,-11.32539 2.52302,-2.46367 4,-3.34617 4,-2.39004 0,0.83372 -1.35,2.80924 -3,4.39004 -3.85733,3.69555 -4.13474,6.53775 -0.34734,3.55858 3.87733,-3.04991 4.22673,-1.56109 0.52899,2.25401 -1.74991,1.80544 -3.18165,4.13289 -3.18165,5.17211 0,1.63382 0.40592,1.50059 3,-0.9847 2.07797,-1.99082 3,-2.40924 3,-1.36141 0,1.40378 -1.96851,3.53963 -6.25,6.78131 -1.62848,1.23298 -1.75,0.80977 -1.75,-6.09451 z m -14.42994,-10.50342 c -0.31353,-0.81705 -0.57006,-2.44887 -0.57006,-3.62626 0,-2.10423 -0.0229,-2.1071 -1.34464,-0.16822 -0.73956,1.08488 -2.63243,4.19553 -4.2064,6.91255 l -2.86175,4.94005 4.77645,-3.28629 c 3.18103,-2.1886 4.58605,-3.78248 4.2064,-4.77183 z m -201.16031,0.92803 c -2.00844,-3.1625 -3.82227,-5.9375 -4.03073,-6.16667 -0.20846,-0.22916 -0.37312,1.34584 -0.36591,3.5 0.011,3.29121 0.53001,4.26605 3.25,6.10452 4.93604,3.33632 5.11259,2.80697 1.14664,-3.43785 z m 86.01339,31.35298 c -29.25777,-10.62785 -57.86964,-32.17816 -74.24435,-55.92043 -6.61747,-9.5949 -13.5121,-24.0079 -16.42137,-34.32836 -2.17475,-7.71476 -2.21955,-9.10123 -2.52396,-78.104181 L 487.9797,-0.52154079 H 594.05615 700.1326 L 699.82269,69.728459 c -0.30441,69.002951 -0.34921,70.389421 -2.52396,78.104181 -9.13692,32.41259 -36.33763,63.57253 -71.12528,81.47801 -13.0836,6.73423 -27.69912,12.19264 -32.44698,12.11787 -1.74368,-0.0275 -7.25491,-1.53365 -12.24718,-3.34709 z m 21.76726,-6.21685 c 20.79461,-7.43602 40.35065,-19.89384 56.31146,-35.87219 18.25186,-18.27189 28.73616,-36.99587 32.44716,-57.94759 0.66051,-3.72914 1.05098,-29.27163 1.05098,-68.750001 V 6.4784592 h -99 -99 V 70.020609 c 0,70.988271 0.0254,71.311101 6.91774,88.098981 5.47747,13.34152 13.73194,25.13455 26.52151,37.89082 12.00735,11.9761 24.06709,20.76588 38.4288,28.00895 10.29861,5.19391 23.55192,10.33787 26.82235,10.41047 1.20472,0.0267 5.47972,-1.12762 9.5,-2.56525 z m -71.03289,-52.76063 c 18.53156,-7.62238 28.98512,-19.60866 33.49707,-38.40847 0.94697,-3.9457 1.40241,-7.49336 1.01209,-7.88369 -0.39033,-0.39032 -3.93799,0.0651 -7.88369,1.01209 -17.15722,4.11773 -28.59219,13.25458 -36.29821,29.00327 l -4.47784,9.15131 v -66.5 -66.500001 l 4.53356,9.26528 c 4.94825,10.1128 11.69288,17.83728 19.64233,22.49597 5.35517,3.13834 18.57813,7.73875 22.2435,7.73875 3.04093,0 3.17802,-1.1286 1.09323,-9 -4.62996,-17.48107 -14.02058,-28.67139 -30.57725,-36.43734 l -7.4423,-3.49083 66.5,-0.0324 66.5,-0.0324 -9.09104,4.44838 c -11.1228,5.44255 -18.4714,12.32256 -23.59021,22.08594 -3.35676,6.40253 -6.81875,16.98998 -6.81875,20.85309 0,2.3233 3.85303,2.04015 12.71383,-0.93432 15.56202,-5.224 24.63902,-13.17122 31.83086,-27.86899 l 4.44838,-9.09103 v 66.500001 66.5 l -4.44838,-9.09104 c -5.67445,-11.59672 -12.60979,-18.86295 -22.73113,-23.81563 -7.90343,-3.8674 -20.25152,-7.48871 -21.4497,-6.29053 -0.40711,0.40712 0.0346,3.96852 0.98156,7.91422 4.51195,18.79981 14.96551,30.78609 33.49707,38.40847 l 5.65751,2.32704 h -67.5 -67.5 z m 69.02675,-50.76634 c 0.92634,-0.47253 6.88884,-0.85915 13.25,-0.85915 h 11.56574 v -20.39301 c 0,-17.204641 -0.23452,-20.483011 -1.5,-20.968621 -1.30158,-0.49946 -1.5,1.99169 -1.5,18.832471 v 19.40808 l -11.75,0.56276 c -6.4625,0.30952 -14.225,0.56276 -17.25,0.56276 -3.025,0 -10.7875,-0.25324 -17.25,-0.56276 l -11.75,-0.56276 V 104.9493 c 0,-16.840781 -0.19842,-19.331931 -1.5,-18.832471 -1.26529,0.48554 -1.5,3.75763 -1.5,20.911471 v 20.33585 l 12.25,0.40081 c 6.7375,0.22044 13.825,0.85728 15.75,1.4152 3.57865,1.03721 8.17854,0.69068 11.18426,-0.84255 z m -51.21944,-7.85915 h 5.03518 v -4 -4 h -5.17126 c -3.32362,0 -5.79904,-0.56814 -6.92834,-1.59013 -0.97693,-0.88411 -2.5659,-1.32926 -3.57874,-1.00258 -2.27512,0.73382 -5.93718,6.88754 -4.40306,7.39891 0.59477,0.19826 1.0814,0.97245 1.0814,1.72043 0,0.74798 0.98991,2.05332 2.1998,2.90076 1.95138,1.3668 2.45559,1.3732 4.46482,0.0567 1.24576,-0.81626 4.53085,-1.4841 7.3002,-1.4841 z m -10.32534,-0.69385 c -1.12618,-1.12619 -0.68589,-2.30615 0.86052,-2.30615 0.825,0 1.5,0.42344 1.5,0.94098 0,1.26098 -1.56159,2.1641 -2.36052,1.36517 z m -0.1294,-6.32246 c 0.34546,-0.55897 1.04702,-0.75742 1.55902,-0.44098 1.38704,0.85723 1.12841,1.45729 -0.62812,1.45729 -0.85746,0 -1.27636,-0.45734 -0.9309,-1.01631 z m 51.00031,-24.762391 c -0.95588,-3.86954 -6.29563,-5.67249 -13.68604,-4.62106 l -6.32435,0.89976 v 17.000001 17 l 10,0.5 10,0.5 0.28665,-14.5 c 0.15765,-7.975001 0.0333,-15.525421 -0.27626,-16.778701 z m 26.98961,13.278701 V 84.978459 l -5.73722,-0.86162 c -6.66013,-1.00021 -10.02996,-0.3712 -12.78822,2.38705 -1.79871,1.79871 -1.97476,3.37726 -1.97684,17.724571 l -0.002,15.75 10.25228,-0.5 10.25228,-0.5 z m 33.88898,16.25 c 0.8014,-1.27404 0.80056,-2.22596 -0.003,-3.5 -0.91633,-1.45268 -2.61444,-1.75 -9.99489,-1.75 h -8.89109 l -0.31265,3.78835 -0.31265,3.78836 9.20674,-0.28836 c 7.47794,-0.2342 9.41345,-0.61696 10.30754,-2.03835 z M 543.55615,99.478459 c 0.33992,-0.55 3.06648,-1 6.05902,-1 h 5.44098 v -4 -4 h -5.5 c -3.025,0 -5.5,-0.40186 -5.5,-0.89302 0,-1.31054 -3.00369,-2.24059 -5.0938,-1.57721 -2.18529,0.69358 -5.48043,6.77882 -3.94742,7.28982 0.57267,0.19089 1.04122,0.89457 1.04122,1.56374 0,2.98357 5.98313,5.071021 7.5,2.61667 z m -4.5,-3 c 0,-0.55 0.675,-1 1.5,-1 0.825,0 1.5,0.45 1.5,1 0,0.55 -0.675,1 -1.5,1 -0.825,0 -1.5,-0.45 -1.5,-1 z m 0,-5 c 0,-0.55 0.675,-1 1.5,-1 0.825,0 1.5,0.45 1.5,1 0,0.55 -0.675,1 -1.5,1 -0.825,0 -1.5,-0.45 -1.5,-1 z m 111.8,5.8 c 1.71444,-1.71444 1.48244,-5.47764 -0.38179,-6.19302 -0.86998,-0.33384 -5.36998,-0.60698 -10,-0.60698 h -8.41821 v 4 4 h 8.8 c 5.51111,0 9.24848,-0.44849 10,-1.2 z"
       id="path1" />
  </g>
</svg>
